<?xml version="1.0" encoding="UTF-8" standalone="no"?>
<!DOCTYPE svg PUBLIC "-//W3C//DTD SVG 1.1//EN"
 "http://www.w3.org/Graphics/SVG/1.1/DTD/svg11.dtd">
<!-- Generated by graphviz version 2.42.4 (0)
 -->
<!-- Title: G Pages: 1 -->
<svg width="558pt" height="470pt"
 viewBox="0.00 0.00 557.92 469.92" xmlns="http://www.w3.org/2000/svg" xmlns:xlink="http://www.w3.org/1999/xlink">
<g id="graph0" class="graph" transform="scale(1 1) rotate(0) translate(12.96 456.96)">
<title>G</title>
<polygon fill="white" stroke="transparent" points="-12.96,12.96 -12.96,-456.96 544.96,-456.96 544.96,12.96 -12.96,12.96"/>
<!-- req -->
<g id="node1" class="node">
<title>req</title>
<path fill="#eaf2ff" stroke="#d6dce4" d="M258,-444C258,-444 12,-444 12,-444 6,-444 0,-438 0,-432 0,-432 0,-420 0,-420 0,-414 6,-408 12,-408 12,-408 258,-408 258,-408 264,-408 270,-414 270,-420 270,-420 270,-432 270,-432 270,-438 264,-444 258,-444"/>
<text text-anchor="middle" x="135" y="-429.6" font-family="Noto Sans CJK SC" font-size="10.50" fill="#1f2937">请求上下文</text>
<text text-anchor="middle" x="135" y="-417.6" font-family="Noto Sans CJK SC" font-size="10.50" fill="#1f2937">userId · tenantId · orgId · warehouseId · locale</text>
</g>
<!-- authn -->
<g id="node2" class="node">
<title>authn</title>
<path fill="#dce9ff" stroke="#d6dce4" d="M303.5,-376C303.5,-376 144.5,-376 144.5,-376 138.5,-376 132.5,-370 132.5,-364 132.5,-364 132.5,-352 132.5,-352 132.5,-346 138.5,-340 144.5,-340 144.5,-340 303.5,-340 303.5,-340 309.5,-340 315.5,-346 315.5,-352 315.5,-352 315.5,-364 315.5,-364 315.5,-370 309.5,-376 303.5,-376"/>
<text text-anchor="middle" x="224" y="-361.6" font-family="Noto Sans CJK SC" font-size="10.50" fill="#1f2937">认证 AuthN</text>
<text text-anchor="middle" x="224" y="-349.6" font-family="Noto Sans CJK SC" font-size="10.50" fill="#1f2937">SSO / MFA / Token / API Credential</text>
</g>
<!-- req&#45;&gt;authn -->
<g id="edge1" class="edge">
<title>req&#45;&gt;authn</title>
<path fill="none" stroke="#6b7280" d="M158.38,-407.66C169.63,-399.32 183.21,-389.25 195.09,-380.44"/>
<polygon fill="#6b7280" stroke="#6b7280" points="196.61,-382.36 200.77,-376.22 193.69,-378.43 196.61,-382.36"/>
</g>
<!-- authz -->
<g id="node3" class="node">
<title>authz</title>
<path fill="#dce9ff" stroke="#d6dce4" d="M279,-308C279,-308 169,-308 169,-308 163,-308 157,-302 157,-296 157,-296 157,-284 157,-284 157,-278 163,-272 169,-272 169,-272 279,-272 279,-272 285,-272 291,-278 291,-284 291,-284 291,-296 291,-296 291,-302 285,-308 279,-308"/>
<text text-anchor="middle" x="224" y="-293.6" font-family="Noto Sans CJK SC" font-size="10.50" fill="#1f2937">授权 AuthZ</text>
<text text-anchor="middle" x="224" y="-281.6" font-family="Noto Sans CJK SC" font-size="10.50" fill="#1f2937">RBAC + ABAC + 数据范围</text>
</g>
<!-- authn&#45;&gt;authz -->
<g id="edge2" class="edge">
<title>authn&#45;&gt;authz</title>
<path fill="none" stroke="#6b7280" d="M224,-339.66C224,-332.29 224,-323.57 224,-315.55"/>
<polygon fill="#6b7280" stroke="#6b7280" points="226.45,-315.45 224,-308.45 221.55,-315.45 226.45,-315.45"/>
</g>
<!-- policy -->
<g id="node4" class="node">
<title>policy</title>
<path fill="white" stroke="#d6dce4" d="M343,-240C343,-240 105,-240 105,-240 99,-240 93,-234 93,-228 93,-228 93,-216 93,-216 93,-210 99,-204 105,-204 105,-204 343,-204 343,-204 349,-204 355,-210 355,-216 355,-216 355,-228 355,-228 355,-234 349,-240 343,-240"/>
<text text-anchor="middle" x="224" y="-225.6" font-family="Noto Sans CJK SC" font-size="10.50" fill="#1f2937">策略判定</text>
<text text-anchor="middle" x="224" y="-213.6" font-family="Noto Sans CJK SC" font-size="10.50" fill="#1f2937">资源 · 动作 · 组织树 · 货主 · 仓库 · 数据所有者</text>
</g>
<!-- authz&#45;&gt;policy -->
<g id="edge3" class="edge">
<title>authz&#45;&gt;policy</title>
<path fill="none" stroke="#6b7280" d="M224,-271.66C224,-264.29 224,-255.57 224,-247.55"/>
<polygon fill="#6b7280" stroke="#6b7280" points="226.45,-247.45 224,-240.45 221.55,-247.45 226.45,-247.45"/>
</g>
<!-- scope -->
<g id="node5" class="node">
<title>scope</title>
<path fill="#e8f5e9" stroke="#d6dce4" d="M388.5,-172C388.5,-172 213.5,-172 213.5,-172 207.5,-172 201.5,-166 201.5,-160 201.5,-160 201.5,-148 201.5,-148 201.5,-142 207.5,-136 213.5,-136 213.5,-136 388.5,-136 388.5,-136 394.5,-136 400.5,-142 400.5,-148 400.5,-148 400.5,-160 400.5,-160 400.5,-166 394.5,-172 388.5,-172"/>
<text text-anchor="middle" x="301" y="-157.6" font-family="Noto Sans CJK SC" font-size="10.50" fill="#1f2937">租户隔离</text>
<text text-anchor="middle" x="301" y="-145.6" font-family="Noto Sans CJK SC" font-size="10.50" fill="#1f2937">行级 tenant_id / Schema / 独立库可选</text>
</g>
<!-- policy&#45;&gt;scope -->
<g id="edge4" class="edge">
<title>policy&#45;&gt;scope</title>
<path fill="none" stroke="#6b7280" d="M244.23,-203.66C253.78,-195.47 265.28,-185.62 275.43,-176.92"/>
<polygon fill="#6b7280" stroke="#6b7280" points="277.18,-178.64 280.9,-172.22 274,-174.92 277.18,-178.64"/>
</g>
<!-- mask -->
<g id="node6" class="node">
<title>mask</title>
<path fill="white" stroke="#d6dce4" d="M376,-104C376,-104 252,-104 252,-104 246,-104 240,-98 240,-92 240,-92 240,-80 240,-80 240,-74 246,-68 252,-68 252,-68 376,-68 376,-68 382,-68 388,-74 388,-80 388,-80 388,-92 388,-92 388,-98 382,-104 376,-104"/>
<text text-anchor="middle" x="314" y="-89.6" font-family="Noto Sans CJK SC" font-size="10.50" fill="#1f2937">字段脱敏与导出控制</text>
<text text-anchor="middle" x="314" y="-77.6" font-family="Noto Sans CJK SC" font-size="10.50" fill="#1f2937">手机号 / 身份证 / 地址 / 价格</text>
</g>
<!-- scope&#45;&gt;mask -->
<g id="edge5" class="edge">
<title>scope&#45;&gt;mask</title>
<path fill="none" stroke="#6b7280" d="M304.42,-135.66C305.87,-128.29 307.59,-119.57 309.16,-111.55"/>
<polygon fill="#6b7280" stroke="#6b7280" points="311.61,-111.8 310.56,-104.45 306.81,-110.85 311.61,-111.8"/>
</g>
<!-- audit -->
<g id="node7" class="node">
<title>audit</title>
<path fill="#fff4d6" stroke="#d6dce4" d="M466,-36C466,-36 270,-36 270,-36 264,-36 258,-30 258,-24 258,-24 258,-12 258,-12 258,-6 264,0 270,0 270,0 466,0 466,0 472,0 478,-6 478,-12 478,-12 478,-24 478,-24 478,-30 472,-36 466,-36"/>
<text text-anchor="middle" x="368" y="-21.6" font-family="Noto Sans CJK SC" font-size="10.50" fill="#1f2937">不可抵赖审计</text>
<text text-anchor="middle" x="368" y="-9.6" font-family="Noto Sans CJK SC" font-size="10.50" fill="#1f2937">登录 · 查询 · 变更 · 导出 · 审批 · 接口</text>
</g>
<!-- mask&#45;&gt;audit -->
<g id="edge6" class="edge">
<title>mask&#45;&gt;audit</title>
<path fill="none" stroke="#6b7280" d="M328.19,-67.66C334.59,-59.84 342.23,-50.49 349.11,-42.09"/>
<polygon fill="#6b7280" stroke="#6b7280" points="351.18,-43.42 353.72,-36.45 347.39,-40.32 351.18,-43.42"/>
</g>
<!-- kms -->
<g id="node8" class="node">
<title>kms</title>
<path fill="white" stroke="#d6dce4" d="M520,-444C520,-444 304,-444 304,-444 298,-444 292,-438 292,-432 292,-432 292,-420 292,-420 292,-414 298,-408 304,-408 304,-408 520,-408 520,-408 526,-408 532,-414 532,-420 532,-420 532,-432 532,-432 532,-438 526,-444 520,-444"/>
<text text-anchor="middle" x="412" y="-429.6" font-family="Noto Sans CJK SC" font-size="10.50" fill="#1f2937">密钥与加密</text>
<text text-anchor="middle" x="412" y="-417.6" font-family="Noto Sans CJK SC" font-size="10.50" fill="#1f2937">TLS · KMS · Secret Rotation · 对象存储加密</text>
</g>
<!-- kms&#45;&gt;authn -->
<g id="edge7" class="edge">
<title>kms&#45;&gt;authn</title>
<path fill="none" stroke="#6b7280" stroke-dasharray="5,2" d="M363.1,-407.83C337.42,-398.82 305.86,-387.74 279.3,-378.41"/>
<polygon fill="#6b7280" stroke="#6b7280" points="280.08,-376.09 272.66,-376.08 278.45,-380.71 280.08,-376.09"/>
</g>
<!-- kms&#45;&gt;scope -->
<g id="edge8" class="edge">
<title>kms&#45;&gt;scope</title>
<path fill="none" stroke="#6b7280" stroke-dasharray="5,2" d="M412.38,-407.99C412.48,-368.83 408.18,-270.53 366,-204 359.04,-193.02 348.69,-183.61 338.29,-176.05"/>
<polygon fill="#6b7280" stroke="#6b7280" points="339.67,-174.03 332.52,-172.05 336.87,-178.05 339.67,-174.03"/>
</g>
<!-- kms&#45;&gt;audit -->
<g id="edge9" class="edge">
<title>kms&#45;&gt;audit</title>
<path fill="none" stroke="#6b7280" stroke-dasharray="5,2" d="M416.88,-407.82C423.63,-382.47 435,-333.49 435,-291 435,-291 435,-291 435,-153 435,-110.38 407.55,-67.42 387.79,-42.02"/>
<polygon fill="#6b7280" stroke="#6b7280" points="389.48,-40.21 383.2,-36.25 385.65,-43.26 389.48,-40.21"/>
</g>
</g>
</svg>
