<?xml version="1.0" encoding="UTF-8" standalone="no"?>
<!DOCTYPE svg PUBLIC "-//W3C//DTD SVG 1.1//EN"
 "http://www.w3.org/Graphics/SVG/1.1/DTD/svg11.dtd">
<!-- Generated by graphviz version 2.42.4 (0)
 -->
<!-- Title: G Pages: 1 -->
<svg width="313pt" height="614pt"
 viewBox="0.00 0.00 312.62 613.92" xmlns="http://www.w3.org/2000/svg" xmlns:xlink="http://www.w3.org/1999/xlink">
<g id="graph0" class="graph" transform="scale(1 1) rotate(0) translate(12.96 600.96)">
<title>G</title>
<polygon fill="white" stroke="transparent" points="-12.96,12.96 -12.96,-600.96 299.66,-600.96 299.66,12.96 -12.96,12.96"/>
<text text-anchor="middle" x="143.35" y="-572" font-family="Noto Sans CJK SC" font-size="15.00">退货与逆向物流</text>
<!-- s -->
<g id="node1" class="node">
<title>s</title>
<ellipse fill="#eaf2ff" stroke="#2a6fdb" cx="179.5" cy="-545" rx="71.56" ry="18"/>
<text text-anchor="middle" x="179.5" y="-542.6" font-family="Noto Sans CJK SC" font-size="10.50" fill="#1f2937">客户退货/RMA申请</text>
</g>
<!-- au -->
<g id="node2" class="node">
<title>au</title>
<path fill="#fff4d6" stroke="#c58b00" d="M167.67,-488.02C167.67,-488.02 83.93,-473.98 83.93,-473.98 78.01,-472.99 78.01,-471.01 83.93,-470.02 83.93,-470.02 167.67,-455.98 167.67,-455.98 173.58,-454.99 185.42,-454.99 191.33,-455.98 191.33,-455.98 275.07,-470.02 275.07,-470.02 280.99,-471.01 280.99,-472.99 275.07,-473.98 275.07,-473.98 191.33,-488.02 191.33,-488.02 185.42,-489.01 173.58,-489.01 167.67,-488.02"/>
<text text-anchor="middle" x="179.5" y="-469.6" font-family="Noto Sans CJK SC" font-size="10.50" fill="#1f2937">规则校验与退货授权</text>
</g>
<!-- s&#45;&gt;au -->
<g id="edge1" class="edge">
<title>s&#45;&gt;au</title>
<path fill="none" stroke="#6b7280" d="M179.5,-526.81C179.5,-517.92 179.5,-506.91 179.5,-497.17"/>
<polygon fill="#6b7280" stroke="#6b7280" points="181.95,-497.03 179.5,-490.03 177.05,-497.03 181.95,-497.03"/>
</g>
<!-- tr -->
<g id="node3" class="node">
<title>tr</title>
<path fill="#ffffff" stroke="#d6dce4" d="M171.5,-409C171.5,-409 103.5,-409 103.5,-409 97.5,-409 91.5,-403 91.5,-397 91.5,-397 91.5,-385 91.5,-385 91.5,-379 97.5,-373 103.5,-373 103.5,-373 171.5,-373 171.5,-373 177.5,-373 183.5,-379 183.5,-385 183.5,-385 183.5,-397 183.5,-397 183.5,-403 177.5,-409 171.5,-409"/>
<text text-anchor="middle" x="137.5" y="-388.6" font-family="Noto Sans CJK SC" font-size="10.50" fill="#1f2937">预约或逆向运输</text>
</g>
<!-- au&#45;&gt;tr -->
<g id="edge2" class="edge">
<title>au&#45;&gt;tr</title>
<path fill="none" stroke="#6b7280" d="M171,-455.01C164.96,-443.65 156.75,-428.2 149.96,-415.45"/>
<polygon fill="#6b7280" stroke="#6b7280" points="152.02,-414.09 146.57,-409.06 147.69,-416.39 152.02,-414.09"/>
<text text-anchor="middle" x="169" y="-429.2" font-family="Noto Sans CJK SC" font-size="8.50" fill="#374151">通过</text>
</g>
<!-- x -->
<g id="node9" class="node">
<title>x</title>
<path fill="#fdecec" stroke="#b42318" d="M269.5,-182C269.5,-182 169.5,-182 169.5,-182 163.5,-182 157.5,-176 157.5,-170 157.5,-170 157.5,-158 157.5,-158 157.5,-152 163.5,-146 169.5,-146 169.5,-146 269.5,-146 269.5,-146 275.5,-146 281.5,-152 281.5,-158 281.5,-158 281.5,-170 281.5,-170 281.5,-176 275.5,-182 269.5,-182"/>
<text text-anchor="middle" x="219.5" y="-161.6" font-family="Noto Sans CJK SC" font-size="10.50" fill="#1f2937">无授权、超期、货不符</text>
</g>
<!-- au&#45;&gt;x -->
<g id="edge3" class="edge">
<title>au&#45;&gt;x</title>
<path fill="none" stroke="#6b7280" d="M192.38,-456.1C204.07,-441 219.5,-416.44 219.5,-392 219.5,-392 219.5,-392 219.5,-244 219.5,-225.73 219.5,-205.09 219.5,-189.48"/>
<polygon fill="#6b7280" stroke="#6b7280" points="221.95,-189.26 219.5,-182.26 217.05,-189.26 221.95,-189.26"/>
<text text-anchor="middle" x="228" y="-315.7" font-family="Noto Sans CJK SC" font-size="8.50" fill="#374151">拒绝</text>
</g>
<!-- rec -->
<g id="node4" class="node">
<title>rec</title>
<path fill="#ffffff" stroke="#d6dce4" d="M155.5,-336C155.5,-336 87.5,-336 87.5,-336 81.5,-336 75.5,-330 75.5,-324 75.5,-324 75.5,-312 75.5,-312 75.5,-306 81.5,-300 87.5,-300 87.5,-300 155.5,-300 155.5,-300 161.5,-300 167.5,-306 167.5,-312 167.5,-312 167.5,-324 167.5,-324 167.5,-330 161.5,-336 155.5,-336"/>
<text text-anchor="middle" x="121.5" y="-315.6" font-family="Noto Sans CJK SC" font-size="10.50" fill="#1f2937">退货收货与识别</text>
</g>
<!-- tr&#45;&gt;rec -->
<g id="edge4" class="edge">
<title>tr&#45;&gt;rec</title>
<path fill="none" stroke="#6b7280" d="M133.63,-372.81C131.6,-363.83 129.09,-352.69 126.88,-342.89"/>
<polygon fill="#6b7280" stroke="#6b7280" points="129.27,-342.32 125.34,-336.03 124.49,-343.4 129.27,-342.32"/>
</g>
<!-- qc -->
<g id="node5" class="node">
<title>qc</title>
<path fill="#fff4d6" stroke="#c58b00" d="M86.75,-260.57C86.75,-260.57 23.19,-247.43 23.19,-247.43 17.32,-246.21 17.32,-243.79 23.19,-242.57 23.19,-242.57 86.75,-229.43 86.75,-229.43 92.62,-228.21 104.38,-228.21 110.25,-229.43 110.25,-229.43 173.81,-242.57 173.81,-242.57 179.68,-243.79 179.68,-246.21 173.81,-247.43 173.81,-247.43 110.25,-260.57 110.25,-260.57 104.38,-261.79 92.62,-261.79 86.75,-260.57"/>
<text text-anchor="middle" x="98.5" y="-242.6" font-family="Noto Sans CJK SC" font-size="10.50" fill="#1f2937">质检与处置判定</text>
</g>
<!-- rec&#45;&gt;qc -->
<g id="edge5" class="edge">
<title>rec&#45;&gt;qc</title>
<path fill="none" stroke="#6b7280" d="M115.93,-299.81C112.91,-290.48 109.13,-278.81 105.86,-268.73"/>
<polygon fill="#6b7280" stroke="#6b7280" points="108.19,-267.96 103.7,-262.06 103.53,-269.47 108.19,-267.96"/>
</g>
<!-- disp -->
<g id="node6" class="node">
<title>disp</title>
<path fill="#ffffff" stroke="#d6dce4" d="M123,-182C123,-182 12,-182 12,-182 6,-182 0,-176 0,-170 0,-170 0,-158 0,-158 0,-152 6,-146 12,-146 12,-146 123,-146 123,-146 129,-146 135,-152 135,-158 135,-158 135,-170 135,-170 135,-176 129,-182 123,-182"/>
<text text-anchor="middle" x="67.5" y="-161.6" font-family="Noto Sans CJK SC" font-size="10.50" fill="#1f2937">上架/维修/报废/退供应商</text>
</g>
<!-- qc&#45;&gt;disp -->
<g id="edge6" class="edge">
<title>qc&#45;&gt;disp</title>
<path fill="none" stroke="#6b7280" d="M92.23,-228.01C87.81,-216.75 81.82,-201.48 76.84,-188.8"/>
<polygon fill="#6b7280" stroke="#6b7280" points="79.03,-187.68 74.19,-182.06 74.47,-189.47 79.03,-187.68"/>
</g>
<!-- qc&#45;&gt;x -->
<g id="edge7" class="edge">
<title>qc&#45;&gt;x</title>
<path fill="none" stroke="#6b7280" d="M118.48,-230.95C137.13,-218.78 165.29,-200.39 187.15,-186.12"/>
<polygon fill="#6b7280" stroke="#6b7280" points="188.61,-188.09 193.13,-182.21 185.93,-183.99 188.61,-188.09"/>
<text text-anchor="middle" x="172" y="-202.2" font-family="Noto Sans CJK SC" font-size="8.50" fill="#374151">异常</text>
</g>
<!-- fin -->
<g id="node7" class="node">
<title>fin</title>
<path fill="#ffffff" stroke="#d6dce4" d="M117.5,-109C117.5,-109 17.5,-109 17.5,-109 11.5,-109 5.5,-103 5.5,-97 5.5,-97 5.5,-85 5.5,-85 5.5,-79 11.5,-73 17.5,-73 17.5,-73 117.5,-73 117.5,-73 123.5,-73 129.5,-79 129.5,-85 129.5,-85 129.5,-97 129.5,-97 129.5,-103 123.5,-109 117.5,-109"/>
<text text-anchor="middle" x="67.5" y="-88.6" font-family="Noto Sans CJK SC" font-size="10.50" fill="#1f2937">退款、换货与费用结算</text>
</g>
<!-- disp&#45;&gt;fin -->
<g id="edge8" class="edge">
<title>disp&#45;&gt;fin</title>
<path fill="none" stroke="#6b7280" d="M67.5,-145.81C67.5,-136.92 67.5,-125.91 67.5,-116.17"/>
<polygon fill="#6b7280" stroke="#6b7280" points="69.95,-116.03 67.5,-109.03 65.05,-116.03 69.95,-116.03"/>
</g>
<!-- e -->
<g id="node8" class="node">
<title>e</title>
<ellipse fill="#e8f5e9" stroke="#087f8c" cx="67.5" cy="-18" rx="42.87" ry="18"/>
<text text-anchor="middle" x="67.5" y="-15.6" font-family="Noto Sans CJK SC" font-size="10.50" fill="#1f2937">RMA 关闭</text>
</g>
<!-- fin&#45;&gt;e -->
<g id="edge9" class="edge">
<title>fin&#45;&gt;e</title>
<path fill="none" stroke="#6b7280" d="M67.5,-72.81C67.5,-63.92 67.5,-52.91 67.5,-43.17"/>
<polygon fill="#6b7280" stroke="#6b7280" points="69.95,-43.03 67.5,-36.03 65.05,-43.03 69.95,-43.03"/>
</g>
</g>
</svg>
