<?xml version="1.0" encoding="UTF-8" standalone="no"?>
<!DOCTYPE svg PUBLIC "-//W3C//DTD SVG 1.1//EN"
 "http://www.w3.org/Graphics/SVG/1.1/DTD/svg11.dtd">
<!-- Generated by graphviz version 2.42.4 (0)
 -->
<!-- Title: G Pages: 1 -->
<svg width="1370pt" height="601pt"
 viewBox="0.00 0.00 1370.42 600.92" xmlns="http://www.w3.org/2000/svg" xmlns:xlink="http://www.w3.org/1999/xlink">
<g id="graph0" class="graph" transform="scale(1 1) rotate(0) translate(12.96 587.96)">
<title>G</title>
<polygon fill="white" stroke="transparent" points="-12.96,12.96 -12.96,-587.96 1357.46,-587.96 1357.46,12.96 -12.96,12.96"/>
<text text-anchor="middle" x="672.25" y="-559" font-family="Noto Sans CJK SC" font-size="15.00">类图：OMS 订单与履约</text>
<!-- BusinessOrder -->
<g id="node1" class="node">
<title>BusinessOrder</title>
<path fill="white" stroke="transparent" d="M629.5,-550C629.5,-550 516.5,-550 516.5,-550 510.5,-550 504.5,-544 504.5,-538 504.5,-538 504.5,-378 504.5,-378 504.5,-372 510.5,-366 516.5,-366 516.5,-366 629.5,-366 629.5,-366 635.5,-366 641.5,-372 641.5,-378 641.5,-378 641.5,-538 641.5,-538 641.5,-544 635.5,-550 629.5,-550"/>
<polygon fill="#eaf2ff" stroke="transparent" points="506,-527 506,-549 641,-549 641,-527 506,-527"/>
<text text-anchor="start" x="513" y="-536.6" font-family="Noto Sans CJK SC" font-weight="bold" font-size="10.50" fill="#1f2937">BusinessOrder 业务订单</text>
<text text-anchor="start" x="511" y="-514.8" font-family="Noto Sans CJK SC" font-size="9.00" fill="#1f2937">id/tenantId: UUID</text>
<text text-anchor="start" x="511" y="-494.8" font-family="Noto Sans CJK SC" font-size="9.00" fill="#1f2937">orderNo/externalNo: String</text>
<text text-anchor="start" x="511" y="-474.8" font-family="Noto Sans CJK SC" font-size="9.00" fill="#1f2937">type/channel: Enum</text>
<text text-anchor="start" x="511" y="-454.8" font-family="Noto Sans CJK SC" font-size="9.00" fill="#1f2937">customerId/supplierId: UUID?</text>
<text text-anchor="start" x="511" y="-434.8" font-family="Noto Sans CJK SC" font-size="9.00" fill="#1f2937">status: OrderStatus</text>
<text text-anchor="start" x="511" y="-414.8" font-family="Noto Sans CJK SC" font-size="9.00" fill="#1f2937">priority: Int</text>
<text text-anchor="start" x="511" y="-394.8" font-family="Noto Sans CJK SC" font-size="9.00" fill="#1f2937">requestedAt: Instant</text>
<text text-anchor="start" x="511" y="-374.8" font-family="Noto Sans CJK SC" font-size="9.00" fill="#1f2937">version: Long</text>
<polygon fill="none" stroke="#aab4c3" points="504.5,-366 504.5,-550 641.5,-550 641.5,-366 504.5,-366"/>
</g>
<!-- OrderLine -->
<g id="node2" class="node">
<title>OrderLine</title>
<path fill="white" stroke="transparent" d="M126,-327C126,-327 12,-327 12,-327 6,-327 0,-321 0,-315 0,-315 0,-175 0,-175 0,-169 6,-163 12,-163 12,-163 126,-163 126,-163 132,-163 138,-169 138,-175 138,-175 138,-315 138,-315 138,-321 132,-327 126,-327"/>
<polygon fill="white" stroke="transparent" points="1,-304 1,-326 137,-326 137,-304 1,-304"/>
<text text-anchor="start" x="26" y="-313.6" font-family="Noto Sans CJK SC" font-weight="bold" font-size="10.50" fill="#1f2937">OrderLine 订单行</text>
<text text-anchor="start" x="6" y="-291.8" font-family="Noto Sans CJK SC" font-size="9.00" fill="#1f2937">id/orderId: UUID</text>
<text text-anchor="start" x="6" y="-271.8" font-family="Noto Sans CJK SC" font-size="9.00" fill="#1f2937">lineNo: Int</text>
<text text-anchor="start" x="6" y="-251.8" font-family="Noto Sans CJK SC" font-size="9.00" fill="#1f2937">productId: UUID</text>
<text text-anchor="start" x="6" y="-231.8" font-family="Noto Sans CJK SC" font-size="9.00" fill="#1f2937">orderedQty: Decimal</text>
<text text-anchor="start" x="6" y="-211.8" font-family="Noto Sans CJK SC" font-size="9.00" fill="#1f2937">unitPrice: Money?</text>
<text text-anchor="start" x="6" y="-191.8" font-family="Noto Sans CJK SC" font-size="9.00" fill="#1f2937">lot/serial requirements: JSON</text>
<text text-anchor="start" x="6" y="-171.8" font-family="Noto Sans CJK SC" font-size="9.00" fill="#1f2937">status: LineStatus</text>
<polygon fill="none" stroke="#aab4c3" points="0,-163 0,-327 138,-327 138,-163 0,-163"/>
</g>
<!-- BusinessOrder&#45;&gt;OrderLine -->
<g id="edge1" class="edge">
<title>BusinessOrder&#45;&gt;OrderLine</title>
<path fill="none" stroke="#6b7280" d="M504.49,-447.64C415.73,-433.07 258.8,-398.82 144,-327 142.05,-325.78 140.12,-324.5 138.21,-323.16"/>
<text text-anchor="middle" x="193" y="-344.2" font-family="Noto Sans CJK SC" font-size="8.50" fill="#374151">1..*</text>
</g>
<!-- OrderAddress -->
<g id="node3" class="node">
<title>OrderAddress</title>
<path fill="white" stroke="transparent" d="M265.5,-297C265.5,-297 162.5,-297 162.5,-297 156.5,-297 150.5,-291 150.5,-285 150.5,-285 150.5,-205 150.5,-205 150.5,-199 156.5,-193 162.5,-193 162.5,-193 265.5,-193 265.5,-193 271.5,-193 277.5,-199 277.5,-205 277.5,-205 277.5,-285 277.5,-285 277.5,-291 271.5,-297 265.5,-297"/>
<polygon fill="white" stroke="transparent" points="152,-274 152,-296 277,-296 277,-274 152,-274"/>
<text text-anchor="start" x="178.5" y="-283.6" font-family="Noto Sans CJK SC" font-weight="bold" font-size="10.50" fill="#1f2937">OrderAddress</text>
<text text-anchor="start" x="157" y="-261.8" font-family="Noto Sans CJK SC" font-size="9.00" fill="#1f2937">id/orderId: UUID</text>
<text text-anchor="start" x="157" y="-241.8" font-family="Noto Sans CJK SC" font-size="9.00" fill="#1f2937">type: SHIP_FROM/TO/BILL</text>
<text text-anchor="start" x="157" y="-221.8" font-family="Noto Sans CJK SC" font-size="9.00" fill="#1f2937">addressId: UUID</text>
<text text-anchor="start" x="157" y="-201.8" font-family="Noto Sans CJK SC" font-size="9.00" fill="#1f2937">contactSnapshot: JSON</text>
<polygon fill="none" stroke="#aab4c3" points="150.5,-193 150.5,-297 277.5,-297 277.5,-193 150.5,-193"/>
</g>
<!-- BusinessOrder&#45;&gt;OrderAddress -->
<g id="edge2" class="edge">
<title>BusinessOrder&#45;&gt;OrderAddress</title>
<path fill="none" stroke="#6b7280" d="M504.28,-435.64C442.72,-414.39 351.94,-377.63 284,-327 272.67,-318.56 261.9,-307.99 252.36,-297.3"/>
<text text-anchor="middle" x="319" y="-344.2" font-family="Noto Sans CJK SC" font-size="8.50" fill="#374151">1..*</text>
</g>
<!-- OrderParty -->
<g id="node4" class="node">
<title>OrderParty</title>
<path fill="white" stroke="transparent" d="M362,-297C362,-297 302,-297 302,-297 296,-297 290,-291 290,-285 290,-285 290,-205 290,-205 290,-199 296,-193 302,-193 302,-193 362,-193 362,-193 368,-193 374,-199 374,-205 374,-205 374,-285 374,-285 374,-291 368,-297 362,-297"/>
<polygon fill="white" stroke="transparent" points="291,-274 291,-296 373,-296 373,-274 291,-274"/>
<text text-anchor="start" x="303" y="-283.6" font-family="Noto Sans CJK SC" font-weight="bold" font-size="10.50" fill="#1f2937">OrderParty</text>
<text text-anchor="start" x="296" y="-261.8" font-family="Noto Sans CJK SC" font-size="9.00" fill="#1f2937">id/orderId: UUID</text>
<text text-anchor="start" x="296" y="-241.8" font-family="Noto Sans CJK SC" font-size="9.00" fill="#1f2937">role: PartnerRole</text>
<text text-anchor="start" x="296" y="-221.8" font-family="Noto Sans CJK SC" font-size="9.00" fill="#1f2937">partnerId: UUID</text>
<text text-anchor="start" x="296" y="-201.8" font-family="Noto Sans CJK SC" font-size="9.00" fill="#1f2937">snapshot: JSON</text>
<polygon fill="none" stroke="#aab4c3" points="290,-193 290,-297 374,-297 374,-193 290,-193"/>
</g>
<!-- BusinessOrder&#45;&gt;OrderParty -->
<g id="edge3" class="edge">
<title>BusinessOrder&#45;&gt;OrderParty</title>
<path fill="none" stroke="#6b7280" d="M504.04,-420.74C464.5,-397.61 415.77,-364.9 380,-327 371.7,-318.2 364.18,-307.72 357.7,-297.27"/>
<text text-anchor="middle" x="409" y="-344.2" font-family="Noto Sans CJK SC" font-size="8.50" fill="#374151">1..*</text>
</g>
<!-- OrderHold -->
<g id="node5" class="node">
<title>OrderHold</title>
<path fill="white" stroke="transparent" d="M496,-297C496,-297 398,-297 398,-297 392,-297 386,-291 386,-285 386,-285 386,-205 386,-205 386,-199 392,-193 398,-193 398,-193 496,-193 496,-193 502,-193 508,-199 508,-205 508,-205 508,-285 508,-285 508,-291 502,-297 496,-297"/>
<polygon fill="white" stroke="transparent" points="387,-274 387,-296 507,-296 507,-274 387,-274"/>
<text text-anchor="start" x="407.5" y="-283.6" font-family="Noto Sans CJK SC" font-weight="bold" font-size="10.50" fill="#1f2937">OrderHold 冻结</text>
<text text-anchor="start" x="392" y="-261.8" font-family="Noto Sans CJK SC" font-size="9.00" fill="#1f2937">id/orderId: UUID</text>
<text text-anchor="start" x="392" y="-241.8" font-family="Noto Sans CJK SC" font-size="9.00" fill="#1f2937">reasonCode: String</text>
<text text-anchor="start" x="392" y="-221.8" font-family="Noto Sans CJK SC" font-size="9.00" fill="#1f2937">holdAt/releasedAt: Instant</text>
<text text-anchor="start" x="392" y="-201.8" font-family="Noto Sans CJK SC" font-size="9.00" fill="#1f2937">createdBy: UUID</text>
<polygon fill="none" stroke="#aab4c3" points="386,-193 386,-297 508,-297 508,-193 386,-193"/>
</g>
<!-- BusinessOrder&#45;&gt;OrderHold -->
<g id="edge4" class="edge">
<title>BusinessOrder&#45;&gt;OrderHold</title>
<path fill="none" stroke="#6b7280" d="M518.65,-365.99C504.6,-342.45 489.96,-317.94 477.6,-297.25"/>
<text text-anchor="middle" x="513" y="-344.2" font-family="Noto Sans CJK SC" font-size="8.50" fill="#374151">0..*</text>
</g>
<!-- OrderEvent -->
<g id="node6" class="node">
<title>OrderEvent</title>
<path fill="white" stroke="transparent" d="M614,-297C614,-297 532,-297 532,-297 526,-297 520,-291 520,-285 520,-285 520,-205 520,-205 520,-199 526,-193 532,-193 532,-193 614,-193 614,-193 620,-193 626,-199 626,-205 626,-205 626,-285 626,-285 626,-291 620,-297 614,-297"/>
<polygon fill="white" stroke="transparent" points="521,-274 521,-296 625,-296 625,-274 521,-274"/>
<text text-anchor="start" x="526" y="-283.6" font-family="Noto Sans CJK SC" font-weight="bold" font-size="10.50" fill="#1f2937">OrderEvent 时间线</text>
<text text-anchor="start" x="526" y="-261.8" font-family="Noto Sans CJK SC" font-size="9.00" fill="#1f2937">id/orderId: UUID</text>
<text text-anchor="start" x="526" y="-241.8" font-family="Noto Sans CJK SC" font-size="9.00" fill="#1f2937">eventType: String</text>
<text text-anchor="start" x="526" y="-221.8" font-family="Noto Sans CJK SC" font-size="9.00" fill="#1f2937">occurredAt: Instant</text>
<text text-anchor="start" x="526" y="-201.8" font-family="Noto Sans CJK SC" font-size="9.00" fill="#1f2937">source/payload: JSON</text>
<polygon fill="none" stroke="#aab4c3" points="520,-193 520,-297 626,-297 626,-193 520,-193"/>
</g>
<!-- BusinessOrder&#45;&gt;OrderEvent -->
<g id="edge5" class="edge">
<title>BusinessOrder&#45;&gt;OrderEvent</title>
<path fill="none" stroke="#6b7280" d="M573,-365.99C573,-342.45 573,-317.94 573,-297.25"/>
<text text-anchor="middle" x="579" y="-344.2" font-family="Noto Sans CJK SC" font-size="8.50" fill="#374151">0..*</text>
</g>
<!-- Fulfillment -->
<g id="node8" class="node">
<title>Fulfillment</title>
<path fill="white" stroke="transparent" d="M807.5,-307C807.5,-307 650.5,-307 650.5,-307 644.5,-307 638.5,-301 638.5,-295 638.5,-295 638.5,-195 638.5,-195 638.5,-189 644.5,-183 650.5,-183 650.5,-183 807.5,-183 807.5,-183 813.5,-183 819.5,-189 819.5,-195 819.5,-195 819.5,-295 819.5,-295 819.5,-301 813.5,-307 807.5,-307"/>
<polygon fill="white" stroke="transparent" points="640,-284 640,-306 819,-306 819,-284 640,-284"/>
<text text-anchor="start" x="669.5" y="-293.6" font-family="Noto Sans CJK SC" font-weight="bold" font-size="10.50" fill="#1f2937">FulfillmentOrder 履约单</text>
<text text-anchor="start" x="645" y="-271.8" font-family="Noto Sans CJK SC" font-size="9.00" fill="#1f2937">id/fulfillmentNo: UUID/String</text>
<text text-anchor="start" x="645" y="-251.8" font-family="Noto Sans CJK SC" font-size="9.00" fill="#1f2937">sourceOrderId/warehouseId: UUID</text>
<text text-anchor="start" x="645" y="-231.8" font-family="Noto Sans CJK SC" font-size="9.00" fill="#1f2937">type: INBOUND/OUTBOUND/TRANSFER</text>
<text text-anchor="start" x="645" y="-211.8" font-family="Noto Sans CJK SC" font-size="9.00" fill="#1f2937">status: FulfillmentStatus</text>
<text text-anchor="start" x="645" y="-191.8" font-family="Noto Sans CJK SC" font-size="9.00" fill="#1f2937">plannedDate: Date</text>
<polygon fill="none" stroke="#aab4c3" points="638.5,-183 638.5,-307 819.5,-307 819.5,-183 638.5,-183"/>
</g>
<!-- BusinessOrder&#45;&gt;Fulfillment -->
<g id="edge7" class="edge">
<title>BusinessOrder&#45;&gt;Fulfillment</title>
<path fill="none" stroke="#6b7280" d="M640.29,-365.99C654.97,-346.13 670.16,-325.58 683.74,-307.22"/>
<text text-anchor="middle" x="662" y="-344.2" font-family="Noto Sans CJK SC" font-size="8.50" fill="#374151">0..*</text>
</g>
<!-- ShipmentRequest -->
<g id="node10" class="node">
<title>ShipmentRequest</title>
<path fill="white" stroke="transparent" d="M988.5,-317C988.5,-317 843.5,-317 843.5,-317 837.5,-317 831.5,-311 831.5,-305 831.5,-305 831.5,-185 831.5,-185 831.5,-179 837.5,-173 843.5,-173 843.5,-173 988.5,-173 988.5,-173 994.5,-173 1000.5,-179 1000.5,-185 1000.5,-185 1000.5,-305 1000.5,-305 1000.5,-311 994.5,-317 988.5,-317"/>
<polygon fill="white" stroke="transparent" points="833,-294 833,-316 1000,-316 1000,-294 833,-294"/>
<text text-anchor="start" x="848" y="-303.6" font-family="Noto Sans CJK SC" font-weight="bold" font-size="10.50" fill="#1f2937">ShipmentRequest 运输需求</text>
<text text-anchor="start" x="838" y="-281.8" font-family="Noto Sans CJK SC" font-size="9.00" fill="#1f2937">id/requestNo: UUID/String</text>
<text text-anchor="start" x="838" y="-261.8" font-family="Noto Sans CJK SC" font-size="9.00" fill="#1f2937">orderId: UUID</text>
<text text-anchor="start" x="838" y="-241.8" font-family="Noto Sans CJK SC" font-size="9.00" fill="#1f2937">origin/destination: UUID</text>
<text text-anchor="start" x="838" y="-221.8" font-family="Noto Sans CJK SC" font-size="9.00" fill="#1f2937">pickup/deliveryWindow: TimeWindow</text>
<text text-anchor="start" x="838" y="-201.8" font-family="Noto Sans CJK SC" font-size="9.00" fill="#1f2937">weight/volume: Decimal</text>
<text text-anchor="start" x="838" y="-181.8" font-family="Noto Sans CJK SC" font-size="9.00" fill="#1f2937">status: RequestStatus</text>
<polygon fill="none" stroke="#aab4c3" points="831.5,-173 831.5,-317 1000.5,-317 1000.5,-173 831.5,-173"/>
</g>
<!-- BusinessOrder&#45;&gt;ShipmentRequest -->
<g id="edge9" class="edge">
<title>BusinessOrder&#45;&gt;ShipmentRequest</title>
<path fill="none" stroke="#6b7280" d="M641.67,-427.29C693.88,-403.37 766.46,-367.2 825,-327 829.53,-323.89 834.08,-320.57 838.6,-317.12"/>
<text text-anchor="middle" x="806" y="-344.2" font-family="Noto Sans CJK SC" font-size="8.50" fill="#374151">0..*</text>
</g>
<!-- RMA -->
<g id="node11" class="node">
<title>RMA</title>
<path fill="white" stroke="transparent" d="M1163.5,-307C1163.5,-307 1024.5,-307 1024.5,-307 1018.5,-307 1012.5,-301 1012.5,-295 1012.5,-295 1012.5,-195 1012.5,-195 1012.5,-189 1018.5,-183 1024.5,-183 1024.5,-183 1163.5,-183 1163.5,-183 1169.5,-183 1175.5,-189 1175.5,-195 1175.5,-195 1175.5,-295 1175.5,-295 1175.5,-301 1169.5,-307 1163.5,-307"/>
<polygon fill="white" stroke="transparent" points="1014,-284 1014,-306 1175,-306 1175,-284 1014,-284"/>
<text text-anchor="start" x="1019" y="-293.6" font-family="Noto Sans CJK SC" font-weight="bold" font-size="10.50" fill="#1f2937">ReturnAuthorization 退货授权</text>
<text text-anchor="start" x="1019" y="-271.8" font-family="Noto Sans CJK SC" font-size="9.00" fill="#1f2937">id/rmaNo: UUID/String</text>
<text text-anchor="start" x="1019" y="-251.8" font-family="Noto Sans CJK SC" font-size="9.00" fill="#1f2937">originalOrderId: UUID</text>
<text text-anchor="start" x="1019" y="-231.8" font-family="Noto Sans CJK SC" font-size="9.00" fill="#1f2937">reasonCode: String</text>
<text text-anchor="start" x="1019" y="-211.8" font-family="Noto Sans CJK SC" font-size="9.00" fill="#1f2937">status: RmaStatus</text>
<text text-anchor="start" x="1019" y="-191.8" font-family="Noto Sans CJK SC" font-size="9.00" fill="#1f2937">resolution: Refund/Replace/Repair</text>
<polygon fill="none" stroke="#aab4c3" points="1012.5,-183 1012.5,-307 1175.5,-307 1175.5,-183 1012.5,-183"/>
</g>
<!-- BusinessOrder&#45;&gt;RMA -->
<g id="edge10" class="edge">
<title>BusinessOrder&#45;&gt;RMA</title>
<path fill="none" stroke="#6b7280" d="M641.67,-446.27C730.4,-430.26 887.51,-394.51 1006,-327 1015.74,-321.45 1025.29,-314.64 1034.29,-307.34"/>
<text text-anchor="middle" x="980" y="-344.2" font-family="Noto Sans CJK SC" font-size="8.50" fill="#374151">0..*</text>
</g>
<!-- SettlementRequest -->
<g id="node12" class="node">
<title>SettlementRequest</title>
<path fill="white" stroke="transparent" d="M1332.5,-287C1332.5,-287 1199.5,-287 1199.5,-287 1193.5,-287 1187.5,-281 1187.5,-275 1187.5,-275 1187.5,-215 1187.5,-215 1187.5,-209 1193.5,-203 1199.5,-203 1199.5,-203 1332.5,-203 1332.5,-203 1338.5,-203 1344.5,-209 1344.5,-215 1344.5,-215 1344.5,-275 1344.5,-275 1344.5,-281 1338.5,-287 1332.5,-287"/>
<polygon fill="white" stroke="transparent" points="1189,-264 1189,-286 1344,-286 1344,-264 1189,-264"/>
<text text-anchor="start" x="1194" y="-273.6" font-family="Noto Sans CJK SC" font-weight="bold" font-size="10.50" fill="#1f2937">SettlementRequest 结算请求</text>
<text text-anchor="start" x="1194" y="-251.8" font-family="Noto Sans CJK SC" font-size="9.00" fill="#1f2937">id/orderId: UUID</text>
<text text-anchor="start" x="1194" y="-231.8" font-family="Noto Sans CJK SC" font-size="9.00" fill="#1f2937">chargeFacts: JSON</text>
<text text-anchor="start" x="1194" y="-211.8" font-family="Noto Sans CJK SC" font-size="9.00" fill="#1f2937">status: Status</text>
<polygon fill="none" stroke="#aab4c3" points="1187.5,-203 1187.5,-287 1344.5,-287 1344.5,-203 1187.5,-203"/>
</g>
<!-- BusinessOrder&#45;&gt;SettlementRequest -->
<g id="edge11" class="edge">
<title>BusinessOrder&#45;&gt;SettlementRequest</title>
<path fill="none" stroke="#6b7280" d="M641.86,-454.36C759.07,-447.33 1002.04,-421.53 1181,-327 1199.75,-317.1 1217.29,-301.87 1231.51,-287.28"/>
<text text-anchor="middle" x="1142" y="-344.2" font-family="Noto Sans CJK SC" font-size="8.50" fill="#374151">0..*</text>
</g>
<!-- Allocation -->
<g id="node7" class="node">
<title>Allocation</title>
<path fill="white" stroke="transparent" d="M123.5,-124C123.5,-124 14.5,-124 14.5,-124 8.5,-124 2.5,-118 2.5,-112 2.5,-112 2.5,-12 2.5,-12 2.5,-6 8.5,0 14.5,0 14.5,0 123.5,0 123.5,0 129.5,0 135.5,-6 135.5,-12 135.5,-12 135.5,-112 135.5,-112 135.5,-118 129.5,-124 123.5,-124"/>
<polygon fill="white" stroke="transparent" points="4,-101 4,-123 135,-123 135,-101 4,-101"/>
<text text-anchor="start" x="31.5" y="-110.6" font-family="Noto Sans CJK SC" font-weight="bold" font-size="10.50" fill="#1f2937">Allocation 分配</text>
<text text-anchor="start" x="9" y="-88.8" font-family="Noto Sans CJK SC" font-size="9.00" fill="#1f2937">id/orderLineId: UUID</text>
<text text-anchor="start" x="9" y="-68.8" font-family="Noto Sans CJK SC" font-size="9.00" fill="#1f2937">warehouseId/ownerId: UUID</text>
<text text-anchor="start" x="9" y="-48.8" font-family="Noto Sans CJK SC" font-size="9.00" fill="#1f2937">allocatedQty: Decimal</text>
<text text-anchor="start" x="9" y="-28.8" font-family="Noto Sans CJK SC" font-size="9.00" fill="#1f2937">ruleId: UUID?</text>
<text text-anchor="start" x="9" y="-8.8" font-family="Noto Sans CJK SC" font-size="9.00" fill="#1f2937">status: AllocationStatus</text>
<polygon fill="none" stroke="#aab4c3" points="2.5,0 2.5,-124 135.5,-124 135.5,0 2.5,0"/>
</g>
<!-- OrderLine&#45;&gt;Allocation -->
<g id="edge6" class="edge">
<title>OrderLine&#45;&gt;Allocation</title>
<path fill="none" stroke="#6b7280" d="M69,-162.77C69,-149.8 69,-136.57 69,-124.17"/>
<text text-anchor="middle" x="75" y="-141.2" font-family="Noto Sans CJK SC" font-size="8.50" fill="#374151">0..*</text>
</g>
<!-- FulfillmentLine -->
<g id="node9" class="node">
<title>FulfillmentLine</title>
<path fill="white" stroke="transparent" d="M797,-114C797,-114 661,-114 661,-114 655,-114 649,-108 649,-102 649,-102 649,-22 649,-22 649,-16 655,-10 661,-10 661,-10 797,-10 797,-10 803,-10 809,-16 809,-22 809,-22 809,-102 809,-102 809,-108 803,-114 797,-114"/>
<polygon fill="white" stroke="transparent" points="650,-91 650,-113 808,-113 808,-91 650,-91"/>
<text text-anchor="start" x="690" y="-100.6" font-family="Noto Sans CJK SC" font-weight="bold" font-size="10.50" fill="#1f2937">FulfillmentLine</text>
<text text-anchor="start" x="655" y="-78.8" font-family="Noto Sans CJK SC" font-size="9.00" fill="#1f2937">id/fulfillmentId/sourceLineId: UUID</text>
<text text-anchor="start" x="655" y="-58.8" font-family="Noto Sans CJK SC" font-size="9.00" fill="#1f2937">productId: UUID</text>
<text text-anchor="start" x="655" y="-38.8" font-family="Noto Sans CJK SC" font-size="9.00" fill="#1f2937">qty: Decimal</text>
<text text-anchor="start" x="655" y="-18.8" font-family="Noto Sans CJK SC" font-size="9.00" fill="#1f2937">status: Status</text>
<polygon fill="none" stroke="#aab4c3" points="649,-10 649,-114 809,-114 809,-10 649,-10"/>
</g>
<!-- Fulfillment&#45;&gt;FulfillmentLine -->
<g id="edge8" class="edge">
<title>Fulfillment&#45;&gt;FulfillmentLine</title>
<path fill="none" stroke="#6b7280" d="M729,-182.97C729,-160.6 729,-135.53 729,-114.11"/>
<text text-anchor="middle" x="735" y="-141.2" font-family="Noto Sans CJK SC" font-size="8.50" fill="#374151">1..*</text>
</g>
</g>
</svg>
