<?xml version="1.0" encoding="UTF-8" standalone="no"?>
<!DOCTYPE svg PUBLIC "-//W3C//DTD SVG 1.1//EN"
 "http://www.w3.org/Graphics/SVG/1.1/DTD/svg11.dtd">
<!-- Generated by graphviz version 2.42.4 (0)
 -->
<!-- Title: G Pages: 1 -->
<svg width="1474pt" height="541pt"
 viewBox="0.00 0.00 1473.92 540.92" xmlns="http://www.w3.org/2000/svg" xmlns:xlink="http://www.w3.org/1999/xlink">
<g id="graph0" class="graph" transform="scale(1 1) rotate(0) translate(12.96 527.96)">
<title>G</title>
<polygon fill="white" stroke="transparent" points="-12.96,12.96 -12.96,-527.96 1460.96,-527.96 1460.96,12.96 -12.96,12.96"/>
<text text-anchor="middle" x="724" y="-499" font-family="Noto Sans CJK SC" font-size="15.00">类图：TMS 计划、执行与回单</text>
<!-- TO -->
<g id="node1" class="node">
<title>TO</title>
<path fill="white" stroke="transparent" d="M319,-490C319,-490 174,-490 174,-490 168,-490 162,-484 162,-478 162,-478 162,-358 162,-358 162,-352 168,-346 174,-346 174,-346 319,-346 319,-346 325,-346 331,-352 331,-358 331,-358 331,-478 331,-478 331,-484 325,-490 319,-490"/>
<polygon fill="#fff4d6" stroke="transparent" points="163.5,-467 163.5,-489 330.5,-489 330.5,-467 163.5,-467"/>
<text text-anchor="start" x="184" y="-476.6" font-family="Noto Sans CJK SC" font-weight="bold" font-size="10.50" fill="#1f2937">TransportOrder 运输订单</text>
<text text-anchor="start" x="168.5" y="-454.8" font-family="Noto Sans CJK SC" font-size="9.00" fill="#1f2937">id/transportNo: UUID/String</text>
<text text-anchor="start" x="168.5" y="-434.8" font-family="Noto Sans CJK SC" font-size="9.00" fill="#1f2937">sourceOrderId: UUID?</text>
<text text-anchor="start" x="168.5" y="-414.8" font-family="Noto Sans CJK SC" font-size="9.00" fill="#1f2937">mode: TransportMode</text>
<text text-anchor="start" x="168.5" y="-394.8" font-family="Noto Sans CJK SC" font-size="9.00" fill="#1f2937">origin/destination: UUID</text>
<text text-anchor="start" x="168.5" y="-374.8" font-family="Noto Sans CJK SC" font-size="9.00" fill="#1f2937">pickup/deliveryWindow: TimeWindow</text>
<text text-anchor="start" x="168.5" y="-354.8" font-family="Noto Sans CJK SC" font-size="9.00" fill="#1f2937">status: TransportOrderStatus</text>
<polygon fill="none" stroke="#aab4c3" points="162,-346 162,-490 331,-490 331,-346 162,-346"/>
</g>
<!-- TOL -->
<g id="node2" class="node">
<title>TOL</title>
<path fill="white" stroke="transparent" d="M174,-297C174,-297 19,-297 19,-297 13,-297 7,-291 7,-285 7,-285 7,-205 7,-205 7,-199 13,-193 19,-193 19,-193 174,-193 174,-193 180,-193 186,-199 186,-205 186,-205 186,-285 186,-285 186,-291 180,-297 174,-297"/>
<polygon fill="white" stroke="transparent" points="8.5,-274 8.5,-296 185.5,-296 185.5,-274 8.5,-274"/>
<text text-anchor="start" x="45.5" y="-283.6" font-family="Noto Sans CJK SC" font-weight="bold" font-size="10.50" fill="#1f2937">TransportOrderLine</text>
<text text-anchor="start" x="13.5" y="-261.8" font-family="Noto Sans CJK SC" font-size="9.00" fill="#1f2937">id/transportOrderId: UUID</text>
<text text-anchor="start" x="13.5" y="-241.8" font-family="Noto Sans CJK SC" font-size="9.00" fill="#1f2937">productId: UUID?</text>
<text text-anchor="start" x="13.5" y="-221.8" font-family="Noto Sans CJK SC" font-size="9.00" fill="#1f2937">packageCount/weight/volume: Decimal</text>
<text text-anchor="start" x="13.5" y="-201.8" font-family="Noto Sans CJK SC" font-size="9.00" fill="#1f2937">temperatureBand: String</text>
<polygon fill="none" stroke="#aab4c3" points="7,-193 7,-297 186,-297 186,-193 7,-193"/>
</g>
<!-- TO&#45;&gt;TOL -->
<g id="edge1" class="edge">
<title>TO&#45;&gt;TOL</title>
<path fill="none" stroke="#6b7280" d="M184.19,-345.97C169.78,-329.54 154.73,-312.38 141.25,-297.01"/>
<text text-anchor="middle" x="173.5" y="-324.2" font-family="Noto Sans CJK SC" font-size="8.50" fill="#374151">1..*</text>
</g>
<!-- Leg -->
<g id="node3" class="node">
<title>Leg</title>
<path fill="white" stroke="transparent" d="M310.5,-307C310.5,-307 210.5,-307 210.5,-307 204.5,-307 198.5,-301 198.5,-295 198.5,-295 198.5,-195 198.5,-195 198.5,-189 204.5,-183 210.5,-183 210.5,-183 310.5,-183 310.5,-183 316.5,-183 322.5,-189 322.5,-195 322.5,-195 322.5,-295 322.5,-295 322.5,-301 316.5,-307 310.5,-307"/>
<polygon fill="white" stroke="transparent" points="199.5,-284 199.5,-306 321.5,-306 321.5,-284 199.5,-284"/>
<text text-anchor="start" x="209" y="-293.6" font-family="Noto Sans CJK SC" font-weight="bold" font-size="10.50" fill="#1f2937">TransportLeg 运输段</text>
<text text-anchor="start" x="204.5" y="-271.8" font-family="Noto Sans CJK SC" font-size="9.00" fill="#1f2937">id/transportOrderId: UUID</text>
<text text-anchor="start" x="204.5" y="-251.8" font-family="Noto Sans CJK SC" font-size="9.00" fill="#1f2937">seq: Int</text>
<text text-anchor="start" x="204.5" y="-231.8" font-family="Noto Sans CJK SC" font-size="9.00" fill="#1f2937">from/toStop: UUID</text>
<text text-anchor="start" x="204.5" y="-211.8" font-family="Noto Sans CJK SC" font-size="9.00" fill="#1f2937">mode: TransportMode</text>
<text text-anchor="start" x="204.5" y="-191.8" font-family="Noto Sans CJK SC" font-size="9.00" fill="#1f2937">status: LegStatus</text>
<polygon fill="none" stroke="#aab4c3" points="198.5,-183 198.5,-307 322.5,-307 322.5,-183 198.5,-183"/>
</g>
<!-- TO&#45;&gt;Leg -->
<g id="edge2" class="edge">
<title>TO&#45;&gt;Leg</title>
<path fill="none" stroke="#6b7280" d="M252.32,-345.97C253.37,-333.03 254.47,-319.63 255.5,-307.02"/>
<text text-anchor="middle" x="260.5" y="-324.2" font-family="Noto Sans CJK SC" font-size="8.50" fill="#374151">1..*</text>
</g>
<!-- ShipmentItem -->
<g id="node6" class="node">
<title>ShipmentItem</title>
<path fill="white" stroke="transparent" d="M181,-104C181,-104 12,-104 12,-104 6,-104 0,-98 0,-92 0,-92 0,-52 0,-52 0,-46 6,-40 12,-40 12,-40 181,-40 181,-40 187,-40 193,-46 193,-52 193,-52 193,-92 193,-92 193,-98 187,-104 181,-104"/>
<polygon fill="white" stroke="transparent" points="1.5,-81 1.5,-103 192.5,-103 192.5,-81 1.5,-81"/>
<text text-anchor="start" x="59.5" y="-90.6" font-family="Noto Sans CJK SC" font-weight="bold" font-size="10.50" fill="#1f2937">ShipmentItem</text>
<text text-anchor="start" x="6.5" y="-68.8" font-family="Noto Sans CJK SC" font-size="9.00" fill="#1f2937">id/shipmentId/transportOrderLineId: UUID</text>
<text text-anchor="start" x="6.5" y="-48.8" font-family="Noto Sans CJK SC" font-size="9.00" fill="#1f2937">qty/weight/volume: Decimal</text>
<polygon fill="none" stroke="#aab4c3" points="0,-40 0,-104 193,-104 193,-40 0,-40"/>
</g>
<!-- TOL&#45;&gt;ShipmentItem -->
<g id="edge5" class="edge">
<title>TOL&#45;&gt;ShipmentItem</title>
<path fill="none" stroke="#6b7280" d="M96.5,-192.69C96.5,-163.87 96.5,-128.84 96.5,-104.14"/>
<text text-anchor="middle" x="102.5" y="-161.2" font-family="Noto Sans CJK SC" font-size="8.50" fill="#374151">0..*</text>
</g>
<!-- Plan -->
<g id="node4" class="node">
<title>Plan</title>
<path fill="white" stroke="transparent" d="M834.5,-470C834.5,-470 676.5,-470 676.5,-470 670.5,-470 664.5,-464 664.5,-458 664.5,-458 664.5,-378 664.5,-378 664.5,-372 670.5,-366 676.5,-366 676.5,-366 834.5,-366 834.5,-366 840.5,-366 846.5,-372 846.5,-378 846.5,-378 846.5,-458 846.5,-458 846.5,-464 840.5,-470 834.5,-470"/>
<polygon fill="white" stroke="transparent" points="665.5,-447 665.5,-469 845.5,-469 845.5,-447 665.5,-447"/>
<text text-anchor="start" x="709" y="-456.6" font-family="Noto Sans CJK SC" font-weight="bold" font-size="10.50" fill="#1f2937">LoadPlan 配载计划</text>
<text text-anchor="start" x="670.5" y="-434.8" font-family="Noto Sans CJK SC" font-size="9.00" fill="#1f2937">id/planNo/planningBatchId: UUID/String</text>
<text text-anchor="start" x="670.5" y="-414.8" font-family="Noto Sans CJK SC" font-size="9.00" fill="#1f2937">equipmentTypeId: UUID</text>
<text text-anchor="start" x="670.5" y="-394.8" font-family="Noto Sans CJK SC" font-size="9.00" fill="#1f2937">weight/volumeUtilization: Decimal</text>
<text text-anchor="start" x="670.5" y="-374.8" font-family="Noto Sans CJK SC" font-size="9.00" fill="#1f2937">status: PlanStatus</text>
<polygon fill="none" stroke="#aab4c3" points="664.5,-366 664.5,-470 846.5,-470 846.5,-366 664.5,-366"/>
</g>
<!-- Shipment -->
<g id="node5" class="node">
<title>Shipment</title>
<path fill="white" stroke="transparent" d="M809.5,-297C809.5,-297 701.5,-297 701.5,-297 695.5,-297 689.5,-291 689.5,-285 689.5,-285 689.5,-205 689.5,-205 689.5,-199 695.5,-193 701.5,-193 701.5,-193 809.5,-193 809.5,-193 815.5,-193 821.5,-199 821.5,-205 821.5,-205 821.5,-285 821.5,-285 821.5,-291 815.5,-297 809.5,-297"/>
<polygon fill="white" stroke="transparent" points="690.5,-274 690.5,-296 820.5,-296 820.5,-274 690.5,-274"/>
<text text-anchor="start" x="698" y="-283.6" font-family="Noto Sans CJK SC" font-weight="bold" font-size="10.50" fill="#1f2937">Shipment/Waybill 运单</text>
<text text-anchor="start" x="695.5" y="-261.8" font-family="Noto Sans CJK SC" font-size="9.00" fill="#1f2937">id/shipmentNo: UUID/String</text>
<text text-anchor="start" x="695.5" y="-241.8" font-family="Noto Sans CJK SC" font-size="9.00" fill="#1f2937">loadPlanId/carrierId: UUID?</text>
<text text-anchor="start" x="695.5" y="-221.8" font-family="Noto Sans CJK SC" font-size="9.00" fill="#1f2937">status: ShipmentStatus</text>
<text text-anchor="start" x="695.5" y="-201.8" font-family="Noto Sans CJK SC" font-size="9.00" fill="#1f2937">planned/actual times: JSON</text>
<polygon fill="none" stroke="#aab4c3" points="689.5,-193 689.5,-297 821.5,-297 821.5,-193 689.5,-193"/>
</g>
<!-- Plan&#45;&gt;Shipment -->
<g id="edge3" class="edge">
<title>Plan&#45;&gt;Shipment</title>
<path fill="none" stroke="#6b7280" d="M755.5,-365.69C755.5,-344.05 755.5,-318.91 755.5,-297.27"/>
<text text-anchor="middle" x="761.5" y="-324.2" font-family="Noto Sans CJK SC" font-size="8.50" fill="#374151">1..*</text>
</g>
<!-- Shipment&#45;&gt;ShipmentItem -->
<g id="edge4" class="edge">
<title>Shipment&#45;&gt;ShipmentItem</title>
<path fill="none" stroke="#6b7280" d="M689.43,-235.68C562.11,-219.08 287.58,-180.28 199.5,-144 175.8,-134.24 152.07,-118.39 133.37,-104.14"/>
<text text-anchor="middle" x="283.5" y="-161.2" font-family="Noto Sans CJK SC" font-size="8.50" fill="#374151">1..*</text>
</g>
<!-- Stop -->
<g id="node7" class="node">
<title>Stop</title>
<path fill="white" stroke="transparent" d="M329.5,-144C329.5,-144 217.5,-144 217.5,-144 211.5,-144 205.5,-138 205.5,-132 205.5,-132 205.5,-12 205.5,-12 205.5,-6 211.5,0 217.5,0 217.5,0 329.5,0 329.5,0 335.5,0 341.5,-6 341.5,-12 341.5,-12 341.5,-132 341.5,-132 341.5,-138 335.5,-144 329.5,-144"/>
<polygon fill="white" stroke="transparent" points="206.5,-121 206.5,-143 340.5,-143 340.5,-121 206.5,-121"/>
<text text-anchor="start" x="249.5" y="-130.6" font-family="Noto Sans CJK SC" font-weight="bold" font-size="10.50" fill="#1f2937">Stop 节点</text>
<text text-anchor="start" x="211.5" y="-108.8" font-family="Noto Sans CJK SC" font-size="9.00" fill="#1f2937">id/shipmentId: UUID</text>
<text text-anchor="start" x="211.5" y="-88.8" font-family="Noto Sans CJK SC" font-size="9.00" fill="#1f2937">seq: Int</text>
<text text-anchor="start" x="211.5" y="-68.8" font-family="Noto Sans CJK SC" font-size="9.00" fill="#1f2937">type: PICKUP/DELIVERY/HUB</text>
<text text-anchor="start" x="211.5" y="-48.8" font-family="Noto Sans CJK SC" font-size="9.00" fill="#1f2937">addressId: UUID</text>
<text text-anchor="start" x="211.5" y="-28.8" font-family="Noto Sans CJK SC" font-size="9.00" fill="#1f2937">planned/actual times: JSON</text>
<text text-anchor="start" x="211.5" y="-8.8" font-family="Noto Sans CJK SC" font-size="9.00" fill="#1f2937">status: StopStatus</text>
<polygon fill="none" stroke="#aab4c3" points="205.5,0 205.5,-144 341.5,-144 341.5,0 205.5,0"/>
</g>
<!-- Shipment&#45;&gt;Stop -->
<g id="edge6" class="edge">
<title>Shipment&#45;&gt;Stop</title>
<path fill="none" stroke="#6b7280" d="M689.38,-238.25C605.6,-228.69 458.84,-204.2 348.5,-144 346.3,-142.8 344.11,-141.51 341.94,-140.16"/>
<text text-anchor="middle" x="394.5" y="-161.2" font-family="Noto Sans CJK SC" font-size="8.50" fill="#374151">2..*</text>
</g>
<!-- Tender -->
<g id="node8" class="node">
<title>Tender</title>
<path fill="white" stroke="transparent" d="M481,-134C481,-134 366,-134 366,-134 360,-134 354,-128 354,-122 354,-122 354,-22 354,-22 354,-16 360,-10 366,-10 366,-10 481,-10 481,-10 487,-10 493,-16 493,-22 493,-22 493,-122 493,-122 493,-128 487,-134 481,-134"/>
<polygon fill="white" stroke="transparent" points="355.5,-111 355.5,-133 492.5,-133 492.5,-111 355.5,-111"/>
<text text-anchor="start" x="364" y="-120.6" font-family="Noto Sans CJK SC" font-weight="bold" font-size="10.50" fill="#1f2937">CarrierTender 委托/投标</text>
<text text-anchor="start" x="360.5" y="-98.8" font-family="Noto Sans CJK SC" font-size="9.00" fill="#1f2937">id/shipmentId/carrierId: UUID</text>
<text text-anchor="start" x="360.5" y="-78.8" font-family="Noto Sans CJK SC" font-size="9.00" fill="#1f2937">method: DIRECT/BID/QUOTE</text>
<text text-anchor="start" x="360.5" y="-58.8" font-family="Noto Sans CJK SC" font-size="9.00" fill="#1f2937">offeredPrice: Money?</text>
<text text-anchor="start" x="360.5" y="-38.8" font-family="Noto Sans CJK SC" font-size="9.00" fill="#1f2937">status: TenderStatus</text>
<text text-anchor="start" x="360.5" y="-18.8" font-family="Noto Sans CJK SC" font-size="9.00" fill="#1f2937">expiresAt: Instant</text>
<polygon fill="none" stroke="#aab4c3" points="354,-10 354,-134 493,-134 493,-10 354,-10"/>
</g>
<!-- Shipment&#45;&gt;Tender -->
<g id="edge7" class="edge">
<title>Shipment&#45;&gt;Tender</title>
<path fill="none" stroke="#6b7280" d="M689.44,-225.8C635.74,-209.26 559.36,-181.69 499.5,-144 494.76,-141.02 490.06,-137.72 485.45,-134.22"/>
<text text-anchor="middle" x="543.5" y="-161.2" font-family="Noto Sans CJK SC" font-size="8.50" fill="#374151">0..*</text>
</g>
<!-- Assign -->
<g id="node9" class="node">
<title>Assign</title>
<path fill="white" stroke="transparent" d="M669.5,-114C669.5,-114 517.5,-114 517.5,-114 511.5,-114 505.5,-108 505.5,-102 505.5,-102 505.5,-42 505.5,-42 505.5,-36 511.5,-30 517.5,-30 517.5,-30 669.5,-30 669.5,-30 675.5,-30 681.5,-36 681.5,-42 681.5,-42 681.5,-102 681.5,-102 681.5,-108 675.5,-114 669.5,-114"/>
<polygon fill="white" stroke="transparent" points="506.5,-91 506.5,-113 680.5,-113 680.5,-91 506.5,-91"/>
<text text-anchor="start" x="545" y="-100.6" font-family="Noto Sans CJK SC" font-weight="bold" font-size="10.50" fill="#1f2937">VehicleAssignment</text>
<text text-anchor="start" x="511.5" y="-78.8" font-family="Noto Sans CJK SC" font-size="9.00" fill="#1f2937">id/shipmentId/vehicleId/driverId: UUID</text>
<text text-anchor="start" x="511.5" y="-58.8" font-family="Noto Sans CJK SC" font-size="9.00" fill="#1f2937">assignedAt: Instant</text>
<text text-anchor="start" x="511.5" y="-38.8" font-family="Noto Sans CJK SC" font-size="9.00" fill="#1f2937">status: AssignmentStatus</text>
<polygon fill="none" stroke="#aab4c3" points="505.5,-30 505.5,-114 681.5,-114 681.5,-30 505.5,-30"/>
</g>
<!-- Shipment&#45;&gt;Assign -->
<g id="edge8" class="edge">
<title>Shipment&#45;&gt;Assign</title>
<path fill="none" stroke="#6b7280" d="M706.89,-192.69C683.13,-167.61 654.91,-137.82 632.57,-114.24"/>
<text text-anchor="middle" x="685.5" y="-161.2" font-family="Noto Sans CJK SC" font-size="8.50" fill="#374151">0..1</text>
</g>
<!-- Route -->
<g id="node10" class="node">
<title>Route</title>
<path fill="white" stroke="transparent" d="M805.5,-124C805.5,-124 705.5,-124 705.5,-124 699.5,-124 693.5,-118 693.5,-112 693.5,-112 693.5,-32 693.5,-32 693.5,-26 699.5,-20 705.5,-20 705.5,-20 805.5,-20 805.5,-20 811.5,-20 817.5,-26 817.5,-32 817.5,-32 817.5,-112 817.5,-112 817.5,-118 811.5,-124 805.5,-124"/>
<polygon fill="white" stroke="transparent" points="694.5,-101 694.5,-123 816.5,-123 816.5,-101 694.5,-101"/>
<text text-anchor="start" x="706.5" y="-110.6" font-family="Noto Sans CJK SC" font-weight="bold" font-size="10.50" fill="#1f2937">RoutePlan 路线计划</text>
<text text-anchor="start" x="699.5" y="-88.8" font-family="Noto Sans CJK SC" font-size="9.00" fill="#1f2937">id/shipmentId: UUID</text>
<text text-anchor="start" x="699.5" y="-68.8" font-family="Noto Sans CJK SC" font-size="9.00" fill="#1f2937">polyline: GeoJson</text>
<text text-anchor="start" x="699.5" y="-48.8" font-family="Noto Sans CJK SC" font-size="9.00" fill="#1f2937">distance/duration: Decimal</text>
<text text-anchor="start" x="699.5" y="-28.8" font-family="Noto Sans CJK SC" font-size="9.00" fill="#1f2937">optimizationTrace: JSON</text>
<polygon fill="none" stroke="#aab4c3" points="693.5,-20 693.5,-124 817.5,-124 817.5,-20 693.5,-20"/>
</g>
<!-- Shipment&#45;&gt;Route -->
<g id="edge9" class="edge">
<title>Shipment&#45;&gt;Route</title>
<path fill="none" stroke="#6b7280" d="M755.5,-192.69C755.5,-171.05 755.5,-145.91 755.5,-124.27"/>
<text text-anchor="middle" x="762.5" y="-161.2" font-family="Noto Sans CJK SC" font-size="8.50" fill="#374151">0..1</text>
</g>
<!-- Track -->
<g id="node11" class="node">
<title>Track</title>
<path fill="white" stroke="transparent" d="M951,-134C951,-134 842,-134 842,-134 836,-134 830,-128 830,-122 830,-122 830,-22 830,-22 830,-16 836,-10 842,-10 842,-10 951,-10 951,-10 957,-10 963,-16 963,-22 963,-22 963,-122 963,-122 963,-128 957,-134 951,-134"/>
<polygon fill="white" stroke="transparent" points="831.5,-111 831.5,-133 962.5,-133 962.5,-111 831.5,-111"/>
<text text-anchor="start" x="838" y="-120.6" font-family="Noto Sans CJK SC" font-weight="bold" font-size="10.50" fill="#1f2937">TrackingEvent 跟踪事件</text>
<text text-anchor="start" x="836.5" y="-98.8" font-family="Noto Sans CJK SC" font-size="9.00" fill="#1f2937">id/shipmentId/stopId: UUID?</text>
<text text-anchor="start" x="836.5" y="-78.8" font-family="Noto Sans CJK SC" font-size="9.00" fill="#1f2937">eventType: TrackingType</text>
<text text-anchor="start" x="836.5" y="-58.8" font-family="Noto Sans CJK SC" font-size="9.00" fill="#1f2937">occurredAt: Instant</text>
<text text-anchor="start" x="836.5" y="-38.8" font-family="Noto Sans CJK SC" font-size="9.00" fill="#1f2937">location: GeoPoint</text>
<text text-anchor="start" x="836.5" y="-18.8" font-family="Noto Sans CJK SC" font-size="9.00" fill="#1f2937">source/payload: JSON</text>
<polygon fill="none" stroke="#aab4c3" points="830,-10 830,-134 963,-134 963,-10 830,-10"/>
</g>
<!-- Shipment&#45;&gt;Track -->
<g id="edge10" class="edge">
<title>Shipment&#45;&gt;Track</title>
<path fill="none" stroke="#6b7280" d="M797.8,-192.69C812.97,-174.3 830.23,-153.37 846.02,-134.22"/>
<text text-anchor="middle" x="827.5" y="-161.2" font-family="Noto Sans CJK SC" font-size="8.50" fill="#374151">0..*</text>
</g>
<!-- Ex -->
<g id="node12" class="node">
<title>Ex</title>
<path fill="white" stroke="transparent" d="M1100,-134C1100,-134 987,-134 987,-134 981,-134 975,-128 975,-122 975,-122 975,-22 975,-22 975,-16 981,-10 987,-10 987,-10 1100,-10 1100,-10 1106,-10 1112,-16 1112,-22 1112,-22 1112,-122 1112,-122 1112,-128 1106,-134 1100,-134"/>
<polygon fill="white" stroke="transparent" points="976.5,-111 976.5,-133 1111.5,-133 1111.5,-111 976.5,-111"/>
<text text-anchor="start" x="981.5" y="-120.6" font-family="Noto Sans CJK SC" font-weight="bold" font-size="10.50" fill="#1f2937">TransportException 异常</text>
<text text-anchor="start" x="981.5" y="-98.8" font-family="Noto Sans CJK SC" font-size="9.00" fill="#1f2937">id/shipmentId: UUID</text>
<text text-anchor="start" x="981.5" y="-78.8" font-family="Noto Sans CJK SC" font-size="9.00" fill="#1f2937">type/severity/status: String</text>
<text text-anchor="start" x="981.5" y="-58.8" font-family="Noto Sans CJK SC" font-size="9.00" fill="#1f2937">ownerId: UUID?</text>
<text text-anchor="start" x="981.5" y="-38.8" font-family="Noto Sans CJK SC" font-size="9.00" fill="#1f2937">detected/resolvedAt: Instant</text>
<text text-anchor="start" x="981.5" y="-18.8" font-family="Noto Sans CJK SC" font-size="9.00" fill="#1f2937">resolution: JSON</text>
<polygon fill="none" stroke="#aab4c3" points="975,-10 975,-134 1112,-134 1112,-10 975,-10"/>
</g>
<!-- Shipment&#45;&gt;Ex -->
<g id="edge11" class="edge">
<title>Shipment&#45;&gt;Ex</title>
<path fill="none" stroke="#6b7280" d="M821.68,-219.66C865.55,-201.98 923.33,-175.65 969.5,-144 973.91,-140.98 978.29,-137.69 982.61,-134.24"/>
<text text-anchor="middle" x="947.5" y="-161.2" font-family="Noto Sans CJK SC" font-size="8.50" fill="#374151">0..*</text>
</g>
<!-- POD -->
<g id="node13" class="node">
<title>POD</title>
<path fill="white" stroke="transparent" d="M1233,-134C1233,-134 1136,-134 1136,-134 1130,-134 1124,-128 1124,-122 1124,-122 1124,-22 1124,-22 1124,-16 1130,-10 1136,-10 1136,-10 1233,-10 1233,-10 1239,-10 1245,-16 1245,-22 1245,-22 1245,-122 1245,-122 1245,-128 1239,-134 1233,-134"/>
<polygon fill="white" stroke="transparent" points="1125.5,-111 1125.5,-133 1244.5,-133 1244.5,-111 1125.5,-111"/>
<text text-anchor="start" x="1132" y="-120.6" font-family="Noto Sans CJK SC" font-weight="bold" font-size="10.50" fill="#1f2937">ProofOfDelivery 回单</text>
<text text-anchor="start" x="1130.5" y="-98.8" font-family="Noto Sans CJK SC" font-size="9.00" fill="#1f2937">id/shipmentId: UUID</text>
<text text-anchor="start" x="1130.5" y="-78.8" font-family="Noto Sans CJK SC" font-size="9.00" fill="#1f2937">signedAt/signer: String</text>
<text text-anchor="start" x="1130.5" y="-58.8" font-family="Noto Sans CJK SC" font-size="9.00" fill="#1f2937">signatureObjectId: UUID?</text>
<text text-anchor="start" x="1130.5" y="-38.8" font-family="Noto Sans CJK SC" font-size="9.00" fill="#1f2937">attachments: Set</text>
<text text-anchor="start" x="1130.5" y="-18.8" font-family="Noto Sans CJK SC" font-size="9.00" fill="#1f2937">status: PodStatus</text>
<polygon fill="none" stroke="#aab4c3" points="1124,-10 1124,-134 1245,-134 1245,-10 1124,-10"/>
</g>
<!-- Shipment&#45;&gt;POD -->
<g id="edge12" class="edge">
<title>Shipment&#45;&gt;POD</title>
<path fill="none" stroke="#6b7280" d="M821.75,-236.82C898,-226.15 1024.75,-200.88 1118.5,-144 1123.25,-141.12 1127.87,-137.8 1132.32,-134.21"/>
<text text-anchor="middle" x="1089.5" y="-161.2" font-family="Noto Sans CJK SC" font-size="8.50" fill="#374151">0..1</text>
</g>
<!-- Fact -->
<g id="node14" class="node">
<title>Fact</title>
<path fill="white" stroke="transparent" d="M1436,-124C1436,-124 1269,-124 1269,-124 1263,-124 1257,-118 1257,-112 1257,-112 1257,-32 1257,-32 1257,-26 1263,-20 1269,-20 1269,-20 1436,-20 1436,-20 1442,-20 1448,-26 1448,-32 1448,-32 1448,-112 1448,-112 1448,-118 1442,-124 1436,-124"/>
<polygon fill="white" stroke="transparent" points="1258.5,-101 1258.5,-123 1447.5,-123 1447.5,-101 1258.5,-101"/>
<text text-anchor="start" x="1283.5" y="-110.6" font-family="Noto Sans CJK SC" font-weight="bold" font-size="10.50" fill="#1f2937">FreightChargeFact 计费事实</text>
<text text-anchor="start" x="1263.5" y="-88.8" font-family="Noto Sans CJK SC" font-size="9.00" fill="#1f2937">id/shipmentId: UUID</text>
<text text-anchor="start" x="1263.5" y="-68.8" font-family="Noto Sans CJK SC" font-size="9.00" fill="#1f2937">distance/weight/volume/duration: Decimal</text>
<text text-anchor="start" x="1263.5" y="-48.8" font-family="Noto Sans CJK SC" font-size="9.00" fill="#1f2937">accessorials: JSON</text>
<text text-anchor="start" x="1263.5" y="-28.8" font-family="Noto Sans CJK SC" font-size="9.00" fill="#1f2937">confirmedAt: Instant</text>
<polygon fill="none" stroke="#aab4c3" points="1257,-20 1257,-124 1448,-124 1448,-20 1257,-20"/>
</g>
<!-- Shipment&#45;&gt;Fact -->
<g id="edge13" class="edge">
<title>Shipment&#45;&gt;Fact</title>
<path fill="none" stroke="#6b7280" d="M821.87,-239.33C919.51,-230.57 1106.02,-206.51 1251.5,-144 1263.91,-138.67 1276.32,-131.66 1287.99,-124.13"/>
<text text-anchor="middle" x="1218.5" y="-161.2" font-family="Noto Sans CJK SC" font-size="8.50" fill="#374151">0..*</text>
</g>
</g>
</svg>
